<?xml version="1.0" standalone="no"?>
<!DOCTYPE svg PUBLIC "-//W3C//DTD SVG 20010904//EN"
 "http://www.w3.org/TR/2001/REC-SVG-20010904/DTD/svg10.dtd">
<svg version="1.0" xmlns="http://www.w3.org/2000/svg"
 width="300.000000pt" height="200.000000pt" viewBox="0 0 300.000000 200.000000"
 preserveAspectRatio="xMidYMid meet">
<metadata>
Created by potrace 1.10, written by Peter Selinger 2001-2011
</metadata>
<g transform="translate(0.000000,200.000000) scale(0.100000,-0.100000)"
fill="#000000" stroke="none">
<path d="M925 1878 c-3 -8 22 -187 55 -398 33 -212 62 -432 66 -489 l6 -104
-27 21 c-49 38 -102 29 -176 -30 -49 -39 -76 -34 -112 20 -58 87 -100 90 -178
11 -47 -46 -48 -47 -66 -27 -71 78 -193 56 -193 -36 0 -19 4 -37 9 -41 6 -3 8
9 4 29 -4 28 -1 39 20 60 34 34 72 33 130 -4 26 -16 47 -31 47 -34 0 -2 -7
-20 -15 -39 -22 -53 -20 -130 4 -151 42 -38 86 8 76 78 -3 21 -16 56 -28 77
l-22 40 47 44 c73 70 99 64 171 -39 26 -37 62 -33 131 14 66 45 96 49 145 19
39 -23 33 -32 -30 -43 -47 -8 -63 -28 -55 -66 3 -17 0 -41 -6 -55 -9 -19 -8
-29 5 -49 10 -15 13 -27 7 -31 -16 -10 -11 -44 9 -62 15 -12 17 -20 9 -33 -27
-42 36 -126 114 -152 39 -13 43 -18 51 -59 12 -58 22 -69 68 -69 29 0 42 6 54
23 13 20 13 34 -4 130 -15 89 -16 109 -4 118 17 15 17 44 -2 59 -14 12 -14 15
1 31 17 19 11 59 -8 59 -6 0 -4 8 5 18 23 25 21 48 -4 65 -13 9 -16 17 -10 22
17 10 13 32 -10 54 -16 15 -19 26 -14 50 15 70 85 113 85 52 0 -16 -7 -45 -15
-65 -14 -34 -14 -39 10 -96 28 -68 32 -125 10 -157 -14 -20 -14 -27 1 -73 14
-43 15 -58 5 -91 -7 -22 -19 -43 -27 -46 -23 -8 -16 -23 10 -23 41 0 78 -19
128 -66 50 -47 94 -58 118 -29 17 21 25 19 38 -10 29 -63 149 -111 212 -85 46
19 45 29 -1 13 -70 -23 -142 3 -193 70 l-26 34 20 44 c35 79 21 193 -24 187
-46 -7 -58 -86 -27 -176 18 -52 18 -53 -3 -67 -32 -23 -53 -18 -99 24 -49 44
-97 71 -128 71 -21 0 -21 1 -5 19 25 27 30 88 13 137 -12 36 -12 45 1 69 20
39 17 96 -7 144 -25 49 -26 81 -4 139 15 39 15 45 0 59 -25 25 -64 9 -87 -37
-11 -21 -20 -47 -21 -57 -1 -23 -14 21 -35 119 -16 76 -16 78 -42 72 -15 -4
-33 -11 -39 -17 -9 -6 -13 -6 -13 2 0 6 14 14 30 18 28 5 30 8 30 52 0 28 9
66 21 91 41 85 35 207 -19 370 -30 92 -64 160 -109 223 -40 54 -70 75 -78 55z
m59 -51 c84 -103 160 -322 161 -462 0 -66 -5 -90 -27 -137 -20 -43 -25 -67
-21 -93 5 -33 4 -35 -21 -35 -31 0 -23 -37 -86 385 -29 187 -54 350 -57 363
-8 34 12 26 51 -21z m136 -767 c0 -6 -8 -13 -17 -16 -10 -3 -26 -10 -35 -15
-21 -11 -22 -6 -8 22 11 20 60 27 60 9z m8 -42 c-3 -7 -20 -14 -38 -16 -30 -3
-32 -2 -21 12 16 19 65 22 59 4z m8 -40 c-1 -19 -7 -23 -35 -23 -25 0 -35 5
-37 18 -1 9 1 15 5 12 6 -3 59 8 67 14 1 1 1 -9 0 -21z m14 -48 c0 -8 3 -24 6
-35 4 -18 0 -20 -38 -22 -46 -1 -58 8 -58 47 0 23 4 25 45 25 34 0 45 -3 45
-15z m60 -85 c24 -29 -5 -45 -86 -45 -83 0 -134 -14 -116 -32 8 -8 33 -8 97 1
97 15 135 10 135 -18 0 -27 -22 -34 -129 -40 -68 -4 -96 -10 -99 -20 -4 -12 8
-13 69 -6 122 12 141 12 153 -7 17 -28 -6 -41 -87 -49 -88 -9 -135 -25 -119
-41 8 -8 32 -6 91 8 91 22 124 17 119 -18 -3 -19 -14 -25 -75 -39 -109 -24
-130 -54 -73 -102 42 -36 38 -40 -17 -16 -82 35 -127 95 -104 138 9 17 8 24
-9 41 -24 24 -25 33 -5 50 12 10 11 16 -7 41 -20 27 -21 29 -4 48 15 16 15 22
4 40 -30 48 37 79 173 80 57 1 80 -3 89 -14z m-650 -85 c12 -44 0 -87 -26 -97
-39 -15 -58 72 -32 145 l13 34 17 -22 c10 -12 22 -39 28 -60z m579 26 c-2 -2
-31 -6 -64 -9 -37 -3 -51 -2 -35 3 25 8 107 13 99 6z m1 -176 c-14 -4 -38 -8
-55 -8 l-30 0 30 8 c17 4 41 8 55 8 l25 0 -25 -8z m430 -76 c14 -37 12 -84 -6
-138 -19 -56 -28 -49 -45 33 -19 91 23 179 51 105z m-340 -105 c17 -96 17
-105 2 -122 -11 -12 -27 -17 -51 -15 l-36 3 -16 110 c-9 61 -16 110 -15 111 4
3 92 20 94 18 2 -1 12 -48 22 -105z m-126 65 c3 -9 6 -27 6 -41 0 -25 0 -26
-20 -8 -20 18 -26 46 -13 58 11 11 20 8 27 -9z"/>
<path d="M2017 1383 c-52 -217 -54 -263 -7 -278 19 -6 21 -12 15 -42 -4 -21
-2 -40 6 -49 10 -12 9 -13 -4 -9 -21 9 -25 -1 -62 -148 -17 -72 -37 -133 -42
-134 -6 -2 -14 12 -17 31 -8 42 -50 96 -75 96 -43 0 -50 -36 -24 -111 17 -47
17 -48 -4 -71 -48 -51 -57 -110 -29 -179 4 -8 0 -32 -9 -52 -24 -59 -19 -100
19 -150 32 -42 33 -47 23 -85 -9 -35 -8 -44 7 -61 48 -52 107 -30 126 48 10
42 16 51 42 60 73 26 138 104 118 142 -6 11 -3 21 11 32 20 18 25 52 9 62 -6
4 -1 18 11 34 17 24 19 32 9 50 -9 17 -9 26 0 37 23 27 3 61 -45 80 -25 9 -48
21 -52 27 -3 6 -2 7 4 4 5 -3 38 3 74 14 46 15 81 19 126 16 74 -5 130 -34
124 -63 -2 -10 -4 -44 -5 -75 -1 -43 4 -62 18 -78 67 -74 105 50 42 134 -18
23 -25 42 -21 55 7 21 70 80 86 80 25 0 50 -24 84 -80 35 -57 75 -90 110 -90
8 0 15 5 15 10 0 6 -13 10 -28 10 -32 0 -53 20 -101 98 -51 80 -102 82 -158 4
l-28 -39 -40 21 c-59 31 -164 34 -234 7 -30 -11 -57 -19 -59 -17 -2 3 3 46 12
98 8 51 17 118 20 148 7 94 14 108 49 112 25 2 36 10 49 38 14 31 55 200 72
300 11 67 -21 5 -61 -119 -44 -139 -55 -119 -23 44 18 93 20 130 7 114 -2 -2
-17 -51 -32 -109 -15 -58 -34 -116 -41 -130 l-13 -25 -1 30 c0 17 8 79 19 138
10 59 15 110 11 112 -4 3 -20 -44 -35 -103 -14 -59 -33 -120 -40 -137 -13 -29
-13 -29 -14 -5 0 14 6 72 14 130 17 125 17 130 7 130 -5 0 -21 -48 -35 -107z
m11 -70 c-17 -142 7 -166 42 -41 l18 63 -6 -79 c-7 -99 12 -101 45 -5 25 71
28 68 13 -12 -7 -35 -7 -56 0 -63 14 -14 20 -5 56 96 40 113 42 106 9 -32 -30
-121 -44 -147 -82 -152 -22 -2 -30 -11 -39 -38 -7 -19 -17 -35 -23 -34 -6 1
-15 2 -21 3 -6 0 -7 19 -4 44 6 39 4 44 -20 55 -22 10 -26 18 -26 51 0 40 40
245 46 238 2 -2 -2 -44 -8 -94z m47 -323 c4 -6 -1 -7 -12 -3 -16 6 -16 5 -4
-10 12 -15 10 -17 -18 -17 -37 0 -44 26 -8 33 12 2 25 5 29 6 4 0 10 -3 13 -9z
m-17 -63 c-7 -14 -16 -17 -35 -12 -14 3 -22 2 -19 -3 3 -5 17 -12 31 -14 13
-3 22 -1 19 3 -3 5 0 9 5 9 13 0 14 -10 2 -29 -5 -8 -24 -14 -43 -13 -27 1
-30 -1 -15 -9 9 -6 27 -7 39 -4 18 6 20 4 15 -16 -3 -13 -10 -49 -16 -79 l-12
-56 -34 4 c-20 2 -38 8 -41 14 -7 10 11 96 31 148 14 38 15 42 15 65 0 11 9
14 34 12 30 -2 33 -4 24 -20z m-213 -93 c17 -7 55 -74 55 -97 0 -8 -11 -19
-25 -25 -26 -12 -34 -45 -14 -58 8 -4 2 -12 -15 -21 -31 -16 -34 -46 -5 -66
l21 -15 -21 -7 c-23 -7 -29 -43 -11 -61 8 -8 6 -15 -5 -24 -21 -17 -19 -45 5
-61 19 -13 20 -18 8 -72 -7 -31 -17 -56 -23 -54 -18 6 -55 69 -55 93 0 13 7
44 16 70 12 36 13 53 5 71 -21 45 -13 97 19 138 35 44 36 51 13 114 -23 65
-12 91 32 75z m135 -135 c138 -22 181 -49 144 -90 -13 -15 -15 -22 -6 -31 17
-17 15 -56 -4 -66 -13 -7 -14 -13 -5 -31 12 -22 0 -61 -19 -61 -5 0 -7 -13 -4
-30 8 -39 -14 -73 -74 -111 -59 -38 -68 -37 -43 5 32 51 28 62 -36 85 -81 29
-107 44 -111 63 -5 28 39 31 108 8 63 -21 100 -23 102 -5 1 13 -67 33 -118 34
-48 1 -91 29 -81 54 9 23 44 24 117 5 72 -20 110 -23 110 -8 0 18 -39 30 -115
37 -51 4 -84 12 -98 24 -21 17 -21 19 -5 35 16 16 23 17 75 5 87 -19 153 -25
153 -13 0 15 -28 23 -105 29 -77 6 -105 16 -105 38 0 14 26 34 45 35 6 0 39
-5 75 -11z m466 -105 c7 -39 -2 -74 -20 -74 -7 0 -21 9 -32 21 -20 22 -26 96
-11 133 7 17 10 16 32 -14 14 -19 27 -48 31 -66z m-436 -155 c18 -12 -44 -1
-75 12 -14 7 -7 7 20 3 22 -3 47 -10 55 -15z m-93 -75 c49 -19 48 -10 14 -159
-16 -69 -17 -70 -52 -73 -25 -2 -40 3 -52 16 -17 19 -17 24 9 126 14 58 29
106 32 106 4 0 26 -7 49 -16z"/>
</g>
</svg>
