<?xml version="1.0" standalone="no"?>
<!DOCTYPE svg PUBLIC "-//W3C//DTD SVG 20010904//EN"
 "http://www.w3.org/TR/2001/REC-SVG-20010904/DTD/svg10.dtd">
<svg version="1.0" xmlns="http://www.w3.org/2000/svg"
 width="300.000000pt" height="300.000000pt" viewBox="0 0 300.000000 300.000000"
 preserveAspectRatio="xMidYMid meet">
<metadata>
Created by potrace 1.10, written by Peter Selinger 2001-2011
</metadata>
<g transform="translate(0.000000,300.000000) scale(0.100000,-0.100000)"
fill="#000000" stroke="none">
<path d="M2130 2913 c-27 -12 -56 -14 -135 -9 -127 8 -167 -3 -221 -59 -50
-51 -70 -116 -54 -174 5 -21 17 -44 25 -51 8 -7 15 -20 15 -30 0 -9 9 -29 20
-43 11 -14 20 -27 20 -29 0 -10 -69 -6 -104 6 l-39 13 -1 65 c-2 87 -40 151
-111 190 -46 25 -59 28 -162 28 -88 0 -123 4 -163 20 -28 11 -53 20 -55 20
-10 0 -4 -37 9 -56 8 -11 28 -55 45 -99 40 -103 88 -167 153 -205 48 -28 59
-31 118 -27 39 3 84 13 112 27 34 15 56 20 75 15 l28 -7 -35 -18 c-19 -10 -64
-44 -100 -75 -77 -68 -113 -85 -179 -85 -41 0 -61 7 -115 41 -36 23 -66 48
-66 55 0 20 -27 29 -45 14 -21 -18 -19 -39 5 -48 20 -8 20 -8 -5 -32 -34 -32
-120 -40 -160 -14 -48 31 -72 126 -42 165 11 15 13 10 15 -28 2 -53 31 -105
67 -121 36 -17 88 -15 111 4 18 14 18 15 1 10 -50 -16 -67 -16 -94 -2 -68 35
-84 112 -33 161 17 16 29 36 28 44 -2 8 8 21 22 28 43 22 119 -8 150 -60 22
-35 26 -87 9 -104 -8 -8 -8 -17 -1 -30 10 -16 12 -15 22 12 15 39 7 106 -16
138 -28 38 -86 67 -133 67 -37 0 -47 -6 -111 -69 -78 -77 -84 -95 -50 -168 43
-96 160 -110 246 -31 22 20 22 20 64 -11 23 -16 47 -32 53 -34 20 -6 -10 -35
-44 -42 -17 -4 -58 -26 -92 -49 -57 -38 -67 -41 -114 -38 -47 3 -52 6 -58 31
-9 44 -42 89 -77 108 -24 13 -67 19 -164 23 -124 5 -136 8 -194 38 -34 18 -64
31 -67 28 -6 -5 39 -120 73 -188 47 -93 126 -156 216 -173 69 -13 162 31 195
93 18 32 29 37 71 26 22 -6 22 -7 5 -27 -10 -11 -50 -43 -89 -72 l-71 -53 -82
10 c-56 6 -97 6 -131 -1 -46 -10 -51 -9 -76 14 -100 93 -266 -19 -239 -162 7
-41 75 -116 121 -134 38 -14 102 -11 140 7 94 45 119 189 40 225 -14 7 -23 16
-20 20 8 14 92 22 160 14 l66 -7 -29 -18 c-32 -19 -73 -66 -73 -83 0 -5 -18
-36 -39 -68 -22 -32 -49 -89 -61 -126 -13 -38 -35 -95 -50 -128 -31 -67 -49
-120 -31 -95 8 12 11 8 11 -17 0 -18 -5 -33 -11 -33 -14 0 -39 -63 -39 -102
-1 -39 -64 -122 -78 -101 -27 41 -150 55 -218 24 -38 -17 -104 -84 -104 -105
0 -6 -19 -48 -41 -94 -23 -45 -40 -84 -38 -85 2 -2 48 -13 101 -26 87 -22 104
-23 151 -12 113 25 176 105 177 226 1 49 5 65 26 90 l25 30 -7 -30 c-4 -16
-12 -41 -19 -55 -7 -14 -16 -58 -19 -99 -6 -59 -17 -92 -51 -162 l-44 -87 -39
5 c-53 7 -106 -12 -154 -55 -77 -69 -97 -144 -73 -267 8 -44 15 -108 15 -142
0 -34 4 -64 9 -67 4 -3 22 16 39 43 22 37 46 58 95 85 82 46 113 75 137 128
27 59 27 161 0 212 l-19 39 38 79 39 79 4 -98 c3 -62 12 -119 25 -156 l20 -58
-33 -33 c-30 -30 -34 -40 -34 -88 0 -74 45 -165 103 -208 77 -57 201 -75 322
-46 60 14 65 33 11 51 -57 20 -102 68 -109 117 -9 70 -54 129 -127 165 -35 18
-75 33 -89 35 -21 3 -29 13 -45 63 -18 52 -20 87 -21 250 0 215 10 264 39 179
9 -27 32 -73 52 -102 39 -58 41 -85 7 -90 -87 -12 -81 -189 8 -253 25 -17 46
-23 86 -23 49 0 56 3 99 44 81 80 94 138 49 217 l-26 43 44 0 c56 0 128 44
147 90 17 40 2 125 -30 169 -53 76 -176 92 -249 33 l-38 -31 -24 32 c-39 51
-48 70 -49 104 0 17 -7 39 -16 48 -16 15 -16 19 0 51 9 19 16 45 16 58 0 23
68 221 69 202 1 -6 14 3 31 19 16 16 31 27 33 24 1 -2 9 -22 16 -44 8 -22 16
-45 18 -51 2 -6 -6 -14 -19 -17 -41 -11 -80 -61 -85 -110 -7 -60 11 -110 53
-147 29 -25 43 -30 88 -30 47 0 60 5 98 34 70 56 87 77 94 113 9 48 -10 103
-46 138 -29 27 -37 30 -100 29 l-68 0 -18 51 c-14 41 -15 58 -6 83 9 26 8 33
-5 41 -14 8 -14 12 6 39 24 35 69 64 123 82 21 6 41 16 45 22 4 8 0 9 -13 4
-10 -4 -16 -5 -14 -3 55 49 122 96 116 81 -4 -10 -10 -45 -13 -76 -5 -54 -8
-58 -39 -68 -75 -25 -104 -76 -90 -155 12 -64 92 -135 151 -135 44 0 122 30
147 57 19 21 23 35 23 92 l0 68 30 -23 c17 -12 50 -31 75 -42 59 -25 108 -67
112 -95 2 -12 10 -22 18 -22 12 0 15 17 15 90 1 71 6 101 23 139 28 62 28 71
-4 135 -34 68 -124 131 -188 131 -62 0 -122 -29 -140 -68 -22 -44 -20 -118 4
-170 l20 -44 -31 26 c-21 18 -42 26 -70 26 l-39 0 0 48 c0 36 7 57 25 82 14
19 25 39 25 46 0 20 102 82 165 99 196 55 230 69 345 147 99 67 121 78 160 79
37 1 41 2 20 9 -20 7 -21 8 -5 9 20 0 55 -20 55 -32 0 -4 -6 -4 -14 -1 -23 9
-85 -54 -97 -99 -14 -52 -7 -143 15 -185 42 -81 115 -139 245 -196 95 -41 115
-37 83 16 -32 53 -35 87 -12 158 22 73 25 121 9 153 -10 19 -8 19 17 -5 42
-38 108 -70 158 -75 24 -3 86 2 137 10 52 9 118 19 147 22 28 4 52 10 52 14 0
4 -20 17 -44 28 -66 32 -111 77 -125 123 -35 119 -183 189 -305 145 -39 -13
-56 -12 -56 4 0 5 37 16 83 25 45 10 116 29 157 44 150 52 311 27 457 -70 125
-84 144 -128 107 -254 -14 -47 -23 -91 -21 -97 5 -15 45 89 56 145 18 99 -45
184 -190 258 -133 68 -273 78 -421 30 -51 -16 -94 -27 -96 -25 -2 2 25 18 59
36 54 27 78 33 150 37 47 2 110 -1 139 -7 29 -6 55 -9 57 -7 12 12 -92 30
-177 30 -103 0 -137 -10 -216 -64 -25 -16 -66 -35 -92 -42 -80 -20 -159 -55
-200 -88 -39 -31 -41 -31 -70 -16 -17 9 -40 28 -52 43 l-22 28 76 7 c121 11
171 45 217 148 18 39 50 86 81 117 65 66 56 90 -22 56z m5 -43 c-36 -38 -84
-63 -171 -89 -88 -26 -60 -1 33 30 35 11 62 23 60 25 -10 10 -138 -39 -172
-66 -46 -37 -50 -37 -29 -5 26 40 73 68 144 87 61 17 62 18 18 13 -86 -8 -198
-84 -198 -133 0 -9 -9 -28 -20 -42 l-20 -25 0 40 c0 27 3 35 9 26 7 -10 11 -6
15 16 11 46 62 101 102 109 19 3 37 11 41 17 4 6 -3 8 -20 3 -58 -14 -77 -27
-116 -76 -39 -49 -41 -56 -41 -118 0 -61 -1 -65 -16 -50 -47 47 -18 171 52
224 38 29 38 29 165 26 70 -1 138 2 151 7 40 16 43 12 13 -19z m-902 -55 c25
-10 71 -15 147 -15 83 0 119 -4 143 -16 67 -34 91 -69 102 -152 7 -52 7 -52
-17 -43 -24 9 -29 16 -78 124 -17 37 -35 67 -40 67 -4 0 7 -30 26 -67 19 -38
34 -74 34 -82 0 -27 -28 9 -60 76 -16 36 -33 64 -36 60 -3 -3 6 -28 20 -56 29
-56 34 -80 13 -63 -7 6 -26 38 -42 72 -16 33 -32 60 -37 60 -5 0 3 -23 18 -51
14 -28 22 -54 19 -57 -8 -9 -30 21 -53 70 -9 21 -20 38 -24 38 -13 0 -9 -13
13 -49 11 -18 18 -35 16 -38 -12 -11 -101 23 -136 54 -23 19 -41 30 -41 25 0
-19 75 -72 115 -83 52 -13 125 -42 125 -50 0 -3 -22 -11 -48 -17 -46 -10 -103
-5 -132 13 -16 10 -72 133 -65 144 2 5 -2 14 -10 21 -14 11 -21 30 -11 30 2 0
20 -7 39 -15z m834 -42 c-24 -38 -27 -45 -27 -63 0 -16 -35 -29 -111 -40 -41
-6 -87 -16 -102 -22 -15 -6 -30 -8 -33 -5 -11 11 52 35 111 42 34 3 79 15 100
26 22 11 31 16 20 13 -11 -4 -58 -14 -105 -23 -47 -10 -92 -21 -100 -26 -8 -4
-5 3 8 17 16 18 38 28 70 32 69 10 144 28 138 33 -3 3 -27 1 -53 -5 -132 -29
-150 -18 -22 13 36 9 79 24 95 34 16 10 30 17 32 16 2 -2 -7 -20 -21 -42z
m-57 -109 c0 -3 -25 -16 -55 -30 -42 -19 -67 -24 -112 -22 -54 3 -56 4 -33 16
14 7 59 19 100 26 93 17 100 17 100 10z m-502 -43 c58 -28 89 -47 107 -64 20
-19 20 -20 -7 -15 -16 3 -25 1 -21 -5 3 -5 -2 -7 -13 -3 -11 3 -50 -3 -89 -14
-40 -11 -59 -19 -43 -19 15 -1 39 4 55 10 37 14 135 22 111 9 -9 -6 -43 -17
-77 -25 -47 -13 -69 -14 -101 -5 -22 6 -38 15 -36 19 3 5 50 19 103 31 54 13
93 25 87 27 -7 2 -48 -5 -92 -17 -100 -25 -130 -25 -162 1 -20 17 -21 19 -5
13 43 -16 111 -14 170 6 64 21 49 21 -51 0 -55 -12 -65 -12 -107 6 -65 27 -69
43 -7 31 37 -7 58 -6 92 6 52 19 63 20 86 8z m555 -57 c3 -4 -4 -14 -16 -24
-16 -13 -21 -29 -22 -63 l0 -45 -31 19 c-17 10 -47 19 -66 19 -52 0 -52 10 0
43 75 48 121 65 135 51z m230 -10 c52 -26 96 -75 128 -141 19 -39 41 -69 62
-82 l32 -21 -60 1 c-34 0 -71 6 -85 14 -24 14 -22 14 25 10 40 -4 44 -3 20 4
-16 5 -48 12 -69 16 -27 4 -35 9 -26 15 10 6 5 10 -16 13 -16 2 0 5 35 6 35 0
61 4 58 8 -4 3 -40 5 -79 4 -86 -3 -84 16 2 22 30 2 20 3 -22 2 -42 -2 -80 0
-83 3 -4 4 31 12 77 19 l83 12 -99 -4 c-116 -5 -121 11 -8 21 40 4 75 11 78
15 7 11 -4 11 -101 -5 -44 -8 -84 -10 -89 -5 -11 10 20 18 110 28 l69 8 -55 1
c-30 1 -75 -3 -100 -9 -41 -9 -46 -8 -62 13 -10 13 -18 26 -18 30 0 22 150 23
193 2z m-229 -25 c-3 -6 -10 -34 -14 -63 l-8 -51 -1 51 c0 27 4 55 11 62 15
15 21 16 12 1z m26 -19 c-18 -34 -11 -77 25 -145 36 -70 24 -70 -27 -1 -20 28
-28 51 -28 82 0 47 18 97 31 88 5 -3 5 -14 -1 -24z m44 -42 c-3 -4 0 -7 7 -6
8 2 12 -12 13 -42 2 -51 48 -135 70 -127 8 3 23 -7 34 -23 l21 -28 -37 10
c-53 14 -68 27 -107 102 -25 49 -35 80 -35 113 0 45 0 46 20 28 11 -10 17 -22
14 -27z m-471 -24 c-120 -82 -129 -86 -74 -35 52 48 103 80 129 81 7 0 -17
-21 -55 -46z m161 -6 c-5 -7 -18 -28 -31 -47 -13 -19 -23 -41 -23 -49 0 -9 15
8 33 38 33 55 60 80 73 67 4 -4 -4 -20 -18 -35 -39 -41 -68 -117 -68 -178 0
-29 3 -55 8 -57 4 -3 7 23 8 56 0 46 8 77 28 120 32 64 43 76 52 53 3 -9 -6
-39 -20 -68 -19 -39 -26 -66 -25 -107 l2 -56 8 62 c7 58 35 131 45 120 3 -3
-2 -29 -10 -58 -9 -29 -15 -73 -15 -98 2 -32 3 -37 6 -16 10 80 25 137 34 128
6 -6 6 -20 -1 -37 -13 -35 -13 -163 0 -171 7 -4 8 17 4 62 -3 39 -1 79 4 93 9
21 11 15 12 -40 0 -64 25 -139 50 -155 6 -4 2 12 -10 35 -12 23 -23 65 -26 93
-5 59 6 44 27 -36 11 -43 39 -88 94 -150 30 -34 8 -29 -89 16 -64 31 -109 60
-139 91 -66 67 -80 103 -75 197 3 70 6 81 32 108 31 33 42 39 30 19z m147 1
c43 -15 71 -39 65 -56 -3 -7 0 -15 6 -19 5 -4 19 -27 30 -51 18 -40 18 -51 8
-89 l-12 -43 -47 48 c-25 26 -34 33 -20 17 50 -58 61 -100 43 -159 -5 -15 -8
-16 -21 -6 -17 15 -43 63 -43 81 0 7 12 -6 26 -29 14 -24 27 -43 30 -43 5 0
-11 36 -64 139 -24 45 -41 86 -38 88 3 3 24 -6 46 -21 22 -14 43 -25 46 -24 4
2 10 -7 15 -19 5 -13 13 -23 20 -23 22 0 -39 86 -84 117 -26 17 -52 33 -59 36
-7 2 -10 8 -6 12 10 10 96 -42 130 -79 15 -17 28 -26 28 -20 0 18 -64 72 -117
99 -80 40 -66 72 18 44z m216 -11 c13 -22 44 -120 39 -125 -8 -8 -56 75 -63
107 -6 31 9 41 24 18z m76 -83 c18 -37 37 -59 59 -71 l33 -16 -32 28 c-37 34
-70 84 -55 84 6 0 14 -5 17 -10 4 -6 30 -22 58 -37 39 -20 68 -27 117 -29 104
-2 102 -5 -19 -24 -140 -23 -167 -16 -198 51 -31 67 -37 90 -21 84 8 -3 26
-30 41 -60z m-1492 -15 c129 -5 139 -7 164 -30 30 -28 55 -71 55 -96 0 -14
-10 -15 -82 -9 -139 12 -209 43 -340 150 -52 42 -47 49 13 17 47 -24 66 -27
190 -32z m1179 23 c37 -24 80 -65 80 -76 0 -5 -16 5 -35 22 -20 17 -42 31 -50
31 -8 0 -19 9 -25 20 -13 24 -3 26 30 3z m-1286 -102 c55 -34 54 -39 -1 -16
-20 8 -38 13 -41 10 -8 -8 64 -35 95 -36 15 -1 39 -4 53 -8 46 -13 -53 -22
-110 -10 -48 10 -52 13 -80 70 -39 76 -38 90 3 52 17 -17 54 -45 81 -62z m716
44 c-46 -18 -50 -18 -44 0 4 10 19 15 43 14 l36 -1 -35 -13z m-610 -117 c27 6
59 8 76 3 29 -8 29 -8 -16 -21 -25 -7 -73 -13 -106 -14 -34 0 -57 -4 -50 -8
21 -14 107 -8 168 13 33 11 70 18 82 16 16 -3 9 -9 -34 -30 -39 -19 -72 -27
-115 -28 -58 -1 -59 -1 -23 -11 45 -12 126 9 182 47 46 31 59 25 25 -11 -33
-36 -95 -64 -145 -64 -58 0 -160 55 -184 101 -8 14 -4 15 41 6 35 -7 66 -7 99
1z m622 -7 c4 -3 -26 -6 -65 -5 -86 1 -90 2 -83 13 6 9 136 3 148 -8z m-177
-43 c-13 -33 -19 -76 -15 -113 1 -11 6 9 11 44 7 59 21 92 34 80 2 -3 -1 -30
-7 -61 -8 -40 -9 -65 -1 -89 10 -32 11 -29 12 36 1 39 6 77 11 85 12 19 12 20
15 -78 1 -46 6 -87 11 -92 6 -6 8 21 6 68 -5 94 14 89 20 -6 2 -34 10 -68 18
-75 10 -10 11 -7 5 13 -4 14 -10 45 -12 70 -5 42 -4 44 11 25 8 -11 16 -28 16
-38 0 -20 39 -101 45 -95 3 2 -5 23 -17 46 -11 24 -18 45 -16 48 10 9 41 -51
42 -81 1 -17 13 -46 27 -65 30 -40 42 -70 30 -70 -5 0 -14 7 -22 16 -7 9 -45
32 -83 51 -39 19 -84 47 -99 62 -37 34 -77 112 -77 151 0 36 25 100 39 100 6
0 4 -13 -4 -32z m237 -33 c31 -58 55 -141 45 -152 -4 -4 -21 9 -37 29 -17 21
-50 44 -75 54 -25 9 -45 21 -45 25 0 13 10 11 63 -15 26 -13 47 -20 47 -16 0
10 -61 39 -99 46 -17 4 -34 11 -38 17 -6 9 20 7 107 -9 22 -4 22 -3 -5 10 -16
9 -48 15 -69 16 -37 0 -76 22 -76 42 0 5 35 8 78 6 l77 -3 27 -50z m38 -2 c21
-33 30 -59 29 -87 l0 -41 -21 59 c-11 33 -26 69 -34 80 -14 21 -18 36 -9 36 3
0 19 -21 35 -47z m-899 -50 c16 -10 29 -21 29 -25 0 -12 -8 -10 -35 8 -49 32
-134 -6 -161 -72 -18 -43 -18 -82 1 -118 22 -41 11 -44 -14 -3 -28 45 -28 120
-1 165 35 57 123 79 181 45z m-1 -33 c13 -8 12 -11 -5 -24 -16 -12 -17 -16 -6
-30 17 -20 55 -21 71 -1 18 22 28 19 46 -16 28 -56 -2 -131 -66 -164 -48 -25
-155 -17 -150 11 0 5 -10 23 -24 41 -19 23 -26 44 -26 74 0 78 100 147 160
109z m852 -40 c45 -47 48 -53 42 -88 -10 -56 -20 -59 -44 -12 -12 23 -19 44
-16 47 3 3 15 -14 26 -38 11 -24 20 -38 20 -31 0 23 -27 77 -63 125 -48 62
-26 60 35 -3z m-310 -10 c50 -14 88 -61 88 -108 0 -45 -36 -111 -71 -131 -22
-12 -30 -12 -71 7 -74 32 -111 125 -72 181 12 16 19 20 27 12 17 -17 57 -13
64 6 4 9 1 19 -5 21 -13 4 -17 22 -4 22 4 0 24 -5 44 -10z m-122 -29 c-31 -26
-35 -34 -35 -78 0 -58 37 -116 89 -139 l31 -13 -32 -1 c-61 0 -123 75 -123
150 0 51 12 75 48 94 46 25 58 18 22 -13z m-261 -140 c-31 -43 -34 -32 -7 24
18 37 24 43 26 27 2 -12 -7 -35 -19 -51z m216 -126 c24 -23 29 -47 25 -109 -3
-50 -16 -69 -51 -81 -25 -9 -34 -18 -33 -34 1 -27 -29 -28 -73 -1 -34 20 -49
43 -70 105 l-13 40 4 -43 c5 -52 26 -86 69 -112 39 -24 28 -26 -19 -4 -44 21
-74 70 -74 123 0 75 52 143 75 98 13 -27 47 -33 65 -11 12 14 12 18 -3 29 -27
19 -20 25 28 25 35 0 52 -6 70 -25z m51 -26 c21 -41 18 -102 -6 -130 l-20 -24
10 28 c17 47 12 109 -11 147 -16 26 -17 31 -5 20 10 -7 24 -26 32 -41z m-406
-242 c0 -13 -7 -32 -15 -43 -15 -18 -16 -17 -9 16 10 54 24 69 24 27z m78
-119 c25 -27 25 -27 7 -55 -29 -44 -24 -106 12 -151 l31 -38 -31 -12 c-17 -6
-31 -11 -32 -9 -1 1 -15 25 -32 52 -37 61 -50 95 -62 160 -9 45 -7 56 17 103
l26 52 19 -37 c11 -21 31 -50 45 -65z m261 11 c21 -11 43 -30 50 -41 11 -18 9
-17 -21 4 -71 53 -144 61 -202 23 -36 -24 -26 -31 15 -10 46 24 102 21 153 -9
102 -59 99 -138 -6 -208 -30 -21 -50 -28 -68 -24 -14 3 -47 10 -75 16 -56 11
-79 33 -96 89 -9 30 -8 44 5 76 l17 40 12 -25 c15 -31 73 -41 83 -15 8 20 2
26 -38 34 -42 9 -42 19 1 48 45 30 119 31 170 2z m-506 -45 c43 -22 43 -21 23
-43 -15 -16 -22 -18 -48 -9 -36 13 -165 5 -181 -11 -14 -14 21 -14 81 0 47 10
115 3 106 -12 -3 -5 -27 -9 -53 -9 -75 0 -171 -12 -171 -21 0 -5 12 -7 28 -4
15 2 54 6 87 9 55 5 58 4 41 -9 -11 -8 -41 -15 -67 -15 -56 0 -109 -10 -109
-20 0 -4 19 -4 43 1 79 15 82 8 12 -26 -38 -20 -81 -46 -95 -60 -36 -35 -45
-31 -22 8 11 17 32 62 47 98 27 69 49 95 100 122 40 21 137 22 178 1z m54
-103 c-6 -53 -35 -119 -61 -141 -12 -9 -9 3 8 41 14 29 31 75 38 101 15 62 22
61 15 -1z m-31 -15 c-25 -75 -64 -144 -87 -157 -24 -12 -23 -11 17 49 13 18
30 56 40 85 17 52 33 81 41 73 3 -2 -3 -25 -11 -50z m-54 -48 c-32 -71 -76
-128 -99 -128 -11 0 -8 9 12 31 14 18 40 59 57 93 35 71 51 92 56 78 2 -6 -10
-39 -26 -74z m615 19 c-16 -30 -72 -77 -92 -77 -4 0 7 10 26 23 19 12 43 39
54 59 11 20 22 35 24 32 3 -3 -3 -19 -12 -37z m-657 -24 c-36 -66 -87 -123
-108 -123 -9 0 0 15 21 40 20 21 46 58 58 82 12 24 27 46 33 50 27 18 26 4 -4
-49z m-36 6 c-36 -71 -134 -150 -134 -109 0 6 4 10 9 10 17 0 72 53 97 92 29
46 51 51 28 7z m-53 -25 c-29 -37 -92 -83 -115 -84 -13 0 -7 8 20 26 21 14 54
41 73 60 39 40 54 38 22 -2z m-51 -9 c-17 -21 -80 -58 -87 -52 -5 5 83 67 95
67 3 0 -1 -7 -8 -15z m560 -50 c88 -46 97 -175 14 -220 -35 -18 -36 -18 -70 0
-40 21 -81 84 -86 130 -3 27 0 30 21 27 29 -4 43 15 30 40 -8 15 -5 20 13 28
33 13 45 12 78 -5z m-160 -54 c-15 -28 -12 -97 5 -130 8 -16 29 -41 47 -56 28
-24 38 -26 78 -21 41 5 43 4 26 -9 -49 -37 -140 -4 -180 64 -26 45 -27 122 -1
151 23 25 39 26 25 1z m250 -74 c0 -24 -7 -52 -15 -63 -14 -18 -14 -17 -5 9 5
16 10 44 10 63 0 19 2 34 5 34 3 0 5 -19 5 -43z m-157 -103 c20 -11 27 -19 18
-22 -29 -10 -111 83 -111 128 0 8 14 -9 30 -37 18 -31 43 -59 63 -69z m-323
60 c0 -6 -17 -14 -37 -18 -21 -3 -51 -13 -68 -21 -25 -14 -28 -14 -15 -1 8 8
29 22 45 30 17 9 23 16 15 16 -47 0 -150 -125 -150 -182 0 -32 10 -36 27 -9 6
10 40 37 75 60 64 42 72 54 17 25 -17 -8 -48 -31 -70 -51 -26 -24 -39 -30 -39
-20 0 20 54 65 115 94 36 18 41 23 20 18 -16 -3 -47 -18 -68 -31 -49 -32 -59
-24 -14 10 38 29 124 62 135 52 3 -4 2 -10 -4 -14 -5 -4 -18 -27 -27 -52 -13
-36 -26 -50 -62 -69 -55 -29 -115 -93 -116 -124 -1 -49 -18 17 -18 76 -1 90
26 142 103 198 32 24 47 28 87 26 28 -1 49 -7 49 -13z m39 -61 c27 -97 -1
-215 -59 -252 l-25 -15 21 24 c40 46 57 91 55 151 0 32 -6 70 -11 84 -13 33
-13 45 0 45 5 0 14 -17 19 -37z m-22 -75 c4 -45 1 -74 -11 -102 -20 -49 -29
-43 -15 9 8 28 8 54 0 92 -11 56 -6 92 11 75 6 -6 12 -39 15 -74z m-39 -57
c-3 -52 -11 -88 -22 -106 -25 -38 -30 -25 -12 29 9 26 16 71 16 101 0 34 4 55
11 55 8 0 10 -24 7 -79z m-32 -13 c-4 -28 -14 -67 -22 -86 -11 -27 -12 -37 -3
-43 8 -4 -2 -14 -27 -27 -40 -20 -73 -51 -92 -87 -10 -17 -11 -11 -12 34 0 41
6 63 23 88 12 18 25 33 30 33 10 0 9 -4 -8 -36 -8 -16 -15 -36 -15 -44 0 -8
22 30 50 85 53 108 66 113 24 9 -14 -36 -24 -67 -21 -70 5 -6 43 82 51 119 3
15 8 38 11 52 10 46 18 26 11 -27z m-41 22 c-11 -12 -20 -28 -21 -36 -1 -8
-21 -36 -45 -62 -63 -71 -62 -70 -54 -42 3 14 27 44 53 68 52 47 49 56 -5 15
-28 -22 -33 -23 -24 -8 14 22 91 84 105 84 5 1 1 -8 -9 -19z m333 -19 c32 -17
27 -5 -5 14 -27 15 -27 16 -3 9 95 -25 150 -83 165 -173 8 -48 61 -116 105
-133 l25 -11 -25 -7 c-45 -14 -175 -11 -221 5 -53 18 -114 66 -133 103 -11 23
-10 39 9 112 17 66 23 80 29 63 4 -12 3 -39 -3 -60 -13 -50 -17 -110 -8 -119
4 -4 8 13 8 37 1 24 5 58 9 74 6 25 8 27 15 12 4 -9 5 -33 3 -52 -5 -41 9 -48
15 -7 2 15 5 -2 6 -38 1 -36 6 -72 11 -80 7 -10 8 4 4 45 -5 53 -4 58 9 42 8
-9 17 -35 21 -57 3 -21 11 -42 18 -46 8 -5 9 -2 5 10 -4 10 -10 30 -13 44 -4
21 1 17 25 -20 16 -25 36 -50 43 -54 8 -5 6 3 -4 19 -25 38 -23 39 25 12 23
-14 52 -25 65 -25 33 0 19 16 -20 24 -40 8 -111 53 -103 66 3 5 -8 16 -26 25
-48 25 -27 29 27 6 26 -12 49 -19 51 -17 5 4 -83 46 -97 46 -4 0 -13 7 -20 15
-11 13 -8 13 23 0 55 -23 58 -17 5 10 -26 14 -52 34 -58 46 l-11 20 41 -21
c50 -26 90 -41 90 -35 0 3 -31 21 -70 40 -65 33 -90 57 -90 86 0 8 5 7 18 -3
9 -9 27 -21 40 -27z m-103 -16 c-8 -22 -14 -49 -14 -60 0 -11 9 9 20 43 11 35
23 62 26 59 3 -3 -4 -37 -16 -76 -11 -38 -21 -77 -22 -88 0 -11 -6 -5 -16 17
-18 42 -12 103 13 131 24 26 26 20 9 -26z"/>
<path d="M1573 2683 c18 -45 33 -79 35 -74 4 12 -35 113 -53 137 -8 10 0 -18
18 -63z"/>
<path d="M1280 2661 c27 -20 86 -31 121 -24 31 7 28 8 -31 14 -36 4 -74 10
-85 14 -16 5 -17 5 -5 -4z"/>
<path d="M1415 2595 c-53 -17 -23 -18 40 0 29 8 39 14 25 14 -14 0 -43 -6 -65
-14z"/>
<path d="M2155 2540 c-26 -6 -23 -8 20 -8 28 0 64 4 80 8 26 6 23 8 -20 8 -27
0 -63 -4 -80 -8z"/>
<path d="M1954 2414 c21 -8 45 -19 53 -25 7 -7 16 -9 19 -6 8 8 -71 47 -93 46
-10 0 0 -7 21 -15z"/>
<path d="M710 2311 c0 -4 20 -16 45 -28 24 -11 42 -16 39 -12 -7 13 -84 49
-84 40z"/>
<path d="M1311 2126 c2 -2 31 -6 64 -10 40 -4 53 -3 40 3 -19 9 -113 15 -104
7z"/>
<path d="M275 1231 c-12 -5 19 -8 75 -8 74 0 86 2 55 8 -50 10 -104 10 -130 0z"/>
<path d="M755 405 c22 -14 45 -25 50 -25 6 1 -8 12 -30 25 -22 14 -44 25 -50
25 -5 -1 8 -12 30 -25z"/>
<path d="M354 1706 c-18 -8 -55 -30 -83 -49 -28 -20 -67 -41 -86 -47 -43 -14
-45 -35 -5 -48 16 -6 51 -31 78 -56 88 -82 165 -97 243 -47 48 30 82 76 95
126 4 17 16 36 26 43 10 7 18 20 18 29 0 13 -5 12 -25 -7 l-25 -23 -23 25
c-52 56 -153 82 -213 54z m127 -17 c33 -11 89 -55 89 -70 0 -4 -12 -10 -26
-13 -18 -5 -40 2 -80 25 -30 17 -58 29 -61 26 -3 -3 19 -18 49 -34 48 -25 51
-28 26 -31 -14 -2 -49 8 -78 23 -28 14 -59 25 -68 23 -8 -2 13 -15 49 -30 40
-17 55 -27 41 -27 -12 -1 -41 8 -63 20 -23 11 -43 18 -46 15 -3 -2 12 -14 34
-25 l38 -20 -40 -2 c-51 -3 -113 0 -145 7 -23 5 -22 7 22 32 25 15 70 42 100
59 57 35 101 41 159 22z m83 -114 c-17 -26 -91 -85 -106 -85 -11 0 104 109
115 110 4 0 0 -11 -9 -25z m-44 -10 c-17 -20 -116 -85 -130 -85 -7 0 18 23 56
50 68 49 98 64 74 35z m-80 -25 c-19 -16 -47 -34 -62 -41 -16 -6 -28 -15 -28
-20 0 -12 67 -11 75 1 3 6 16 8 29 4 17 -4 35 6 76 43 52 46 53 47 34 14 -31
-56 -89 -91 -146 -91 -61 0 -103 19 -151 68 l-36 37 86 1 c74 0 83 -1 67 -13
-11 -8 -31 -17 -46 -20 -16 -3 -28 -9 -28 -14 0 -13 6 -12 63 18 46 24 81 39
97 42 3 0 -11 -13 -30 -29z"/>
</g>
</svg>
