<?xml version="1.0" standalone="no"?>
<!DOCTYPE svg PUBLIC "-//W3C//DTD SVG 20010904//EN"
 "http://www.w3.org/TR/2001/REC-SVG-20010904/DTD/svg10.dtd">
<svg version="1.0" xmlns="http://www.w3.org/2000/svg"
 width="300.000000pt" height="186.000000pt" viewBox="0 0 300.000000 186.000000"
 preserveAspectRatio="xMidYMid meet">
<metadata>
Created by potrace 1.10, written by Peter Selinger 2001-2011
</metadata>
<g transform="translate(0.000000,186.000000) scale(0.100000,-0.100000)"
fill="#000000" stroke="none">
<path d="M1984 1076 l-35 -35 -37 25 c-44 30 -74 26 -117 -17 -26 -25 -30 -37
-30 -82 0 -49 38 -157 50 -145 3 3 -4 25 -15 49 -29 64 -27 139 5 173 29 32
68 34 110 6 38 -25 52 -25 60 1 8 26 63 50 96 42 36 -9 68 -42 75 -79 10 -53
-13 -130 -78 -260 l-60 -121 -69 -12 c-90 -15 -224 -57 -275 -87 -23 -13 -53
-37 -67 -54 -23 -27 -25 -33 -14 -58 19 -43 38 -66 89 -104 86 -66 260 -75
459 -24 166 42 282 119 310 204 6 20 15 41 19 46 5 4 48 8 97 8 92 0 112 7
164 55 21 19 160 67 226 77 19 3 28 16 12 16 -8 0 -52 -12 -98 -25 -47 -14
-86 -25 -88 -25 -1 0 0 8 4 18 3 9 -11 -2 -31 -25 -37 -42 -56 -53 -56 -33 0
15 180 190 195 190 21 0 59 36 51 48 -12 19 -35 14 -61 -14 -20 -22 -39 -28
-132 -41 -121 -17 -210 -57 -271 -121 -31 -32 -34 -33 -63 -22 -30 13 -221 9
-341 -6 l-48 -7 46 81 c58 104 94 203 94 267 0 57 -17 88 -60 110 -47 24 -78
19 -116 -19z m831 -320 c-35 -46 -46 -48 -65 -12 -15 30 -14 31 10 37 14 4 38
7 53 8 l28 1 -26 -34z m-191 -9 c-58 -31 -134 -89 -134 -102 0 -6 7 -20 15
-31 8 -10 14 -23 14 -29 0 -5 -4 -2 -10 8 -5 9 -14 17 -18 17 -4 0 -31 -23
-60 -51 -124 -121 -437 -200 -679 -171 -114 13 -140 21 -120 33 23 15 68 11
68 -7 0 -11 8 -14 28 -12 21 2 27 8 25 24 -2 18 7 24 55 37 100 28 132 31 132
15 0 -8 9 -23 21 -34 43 -38 213 -15 322 44 26 14 46 30 44 36 -6 17 -152 18
-262 2 -54 -8 -101 -13 -104 -10 -8 7 42 95 59 104 20 10 274 30 330 25 25 -2
58 -7 73 -11 22 -5 31 -2 43 15 16 23 119 96 156 111 42 17 43 9 2 -13z m116
-9 c22 -41 4 -53 -76 -50 -60 3 -67 1 -100 -27 -33 -29 -64 -40 -64 -23 0 15
97 89 132 101 21 7 40 17 44 22 11 18 48 4 64 -23z m-59 -66 c-6 -2 -18 -20
-27 -40 -24 -58 -39 -70 -95 -70 -41 0 -48 3 -38 14 6 8 9 21 5 29 -3 9 -2 13
4 10 5 -3 25 9 44 26 40 35 48 22 16 -26 -26 -39 -25 -53 1 -29 31 28 64 94
39 79 -5 -3 -10 -2 -10 2 0 5 16 9 37 9 20 0 31 -2 24 -4z m14 -29 c-4 -10 -8
-27 -10 -38 -1 -11 -7 -20 -12 -20 -6 0 -15 -3 -19 -7 -20 -20 -20 -4 -1 31
12 22 25 37 29 35 5 -3 8 0 8 5 0 6 3 11 6 11 3 0 3 -8 -1 -17z m-705 -28 c0
-2 -12 -29 -27 -59 -24 -50 -29 -54 -70 -60 -24 -3 -77 -17 -118 -31 -42 -14
-86 -25 -100 -25 -13 0 -35 -4 -50 -10 -20 -7 -27 -7 -31 4 -20 53 103 120
301 166 92 21 95 22 95 15z m510 -35 c0 -13 -7 -20 -20 -20 -25 0 -25 9 -2 26
22 17 22 17 22 -6z m-77 -88 c-50 -98 -154 -158 -343 -197 -96 -21 -264 -24
-325 -6 -43 12 -135 77 -143 100 -4 11 1 12 19 7 109 -32 317 -32 464 -1 164
34 342 121 346 169 0 6 3 5 6 -2 3 -8 -8 -39 -24 -70z m-113 29 c0 -11 -104
-57 -160 -70 -70 -16 -166 -14 -184 5 -33 33 -19 41 92 57 122 17 252 21 252
8z"/>
<path d="M2322 625 c4 -23 35 -32 51 -16 8 8 7 14 -2 24 -10 8 -12 8 -7 0 11
-21 -16 -27 -31 -7 -14 19 -15 19 -11 -1z"/>
<path d="M1585 897 c-44 -21 -66 -50 -72 -96 -3 -23 -11 -44 -17 -48 -6 -3 -8
-3 -4 2 4 4 0 14 -10 21 -22 17 -35 18 -26 2 4 -8 3 -10 -2 -5 -5 5 -9 13 -9
17 0 11 -102 88 -128 96 -10 3 -24 1 -30 -5 -18 -18 14 -42 128 -100 86 -44
110 -60 122 -87 16 -32 16 -33 -15 -59 -55 -46 -76 -92 -82 -178 l-5 -79 -49
37 c-54 42 -85 100 -86 158 0 39 -53 157 -70 157 -22 0 -19 -24 9 -77 17 -31
31 -69 31 -85 0 -16 6 -43 14 -61 14 -35 73 -100 93 -103 7 -1 25 -12 40 -24
l28 -22 6 84 c6 93 21 127 73 177 l36 35 35 -17 c71 -34 130 -13 107 38 -25
55 -137 97 -150 57 -3 -9 3 -11 22 -6 46 11 142 -67 101 -82 -25 -10 -109 21
-120 44 -6 11 -17 27 -24 36 -9 11 -12 32 -8 63 4 37 12 54 36 75 41 36 113
42 159 12 25 -16 30 -39 6 -30 -35 14 -75 -40 -43 -59 18 -12 57 4 64 25 6 19
7 19 54 -5 26 -13 55 -35 65 -49 19 -30 93 -82 103 -72 8 8 -56 76 -71 76 -6
-1 3 -12 19 -25 17 -14 25 -25 19 -25 -12 0 -51 39 -56 55 -3 13 -60 61 -67
58 -15 -7 -49 13 -76 44 -24 28 -39 36 -75 39 -26 3 -58 -2 -75 -9z m-217 -58
c23 -17 42 -32 42 -34 0 -9 -104 43 -108 54 -7 20 23 11 66 -20z m372 -17 c0
-14 -23 -32 -42 -32 -18 0 -25 20 -11 33 9 10 53 9 53 -1z m-481 -157 c22 -40
31 -66 30 -97 l-2 -43 -6 45 c-4 25 -19 66 -34 92 -15 26 -27 49 -27 52 0 15
10 2 39 -49z"/>
<path d="M173 834 c-21 -9 -16 -55 7 -61 10 -3 37 -29 59 -58 22 -29 64 -79
94 -111 30 -33 56 -68 58 -79 3 -11 12 -20 20 -20 27 0 49 -26 49 -56 0 -43
-18 -45 -59 -5 -20 20 -44 36 -53 36 -10 0 -30 -16 -45 -35 -18 -23 -37 -35
-53 -35 -30 0 -138 -25 -147 -34 -3 -3 0 -12 7 -21 11 -13 9 -15 -12 -15 -58
0 -81 -77 -35 -116 14 -12 29 -23 34 -25 10 -5 53 -65 53 -75 0 -11 -88 4
-120 21 -17 9 -30 12 -30 7 0 -15 53 -34 113 -39 32 -3 60 -10 63 -14 7 -13
99 -11 127 2 26 12 57 84 57 132 0 16 -12 48 -26 73 -18 30 -24 52 -20 69 4
14 1 27 -6 31 -7 5 -9 2 -6 -8 4 -8 2 -21 -4 -29 -8 -11 -9 -10 -4 4 3 9 1 17
-5 17 -13 0 -3 -49 22 -104 22 -48 23 -71 8 -115 -10 -27 -15 -31 -49 -31 -21
0 -51 -5 -67 -11 -25 -9 -30 -7 -51 18 -39 47 -57 67 -80 85 -38 31 -20 98 26
98 12 0 9 -6 -12 -23 -31 -25 -31 -59 1 -71 26 -10 37 10 39 74 0 33 3 62 6
65 2 2 38 10 80 16 64 9 78 15 89 36 17 32 47 49 62 34 7 -7 5 -12 -6 -17 -20
-7 -22 -30 -4 -37 6 -2 20 2 29 10 15 14 19 13 33 -1 9 -9 20 -16 25 -16 5 0
0 -30 -10 -66 -13 -45 -16 -72 -10 -84 17 -32 328 -140 403 -140 29 0 63 42
82 101 10 30 19 55 20 57 8 9 82 -50 98 -77 18 -31 18 -31 -3 -31 -56 0 -77
-41 -39 -76 19 -17 23 -17 47 -3 17 9 28 25 30 41 2 21 9 28 30 30 18 2 26 8
23 18 -2 8 -5 22 -7 30 -6 23 8 38 41 42 26 3 36 -6 102 -92 80 -104 107 -125
128 -96 18 24 8 45 -45 91 -25 21 -66 59 -92 84 -26 25 -50 42 -53 39 -4 -3
37 -43 89 -89 93 -81 118 -119 77 -119 -11 0 -48 39 -100 105 -76 97 -101 121
-101 95 0 -5 -8 -10 -19 -10 -26 0 -44 -25 -39 -54 5 -23 -7 -36 -32 -36 -4 0
-20 20 -34 45 -15 24 -39 50 -54 57 -21 11 -27 20 -27 46 0 17 -4 32 -9 32 -6
0 -1 6 10 14 33 25 6 48 -94 81 -86 29 -91 32 -75 48 23 23 8 37 -46 44 -41 6
-42 5 -36 -19 l7 -25 -82 23 c-102 30 -114 30 -137 0 -19 -23 -20 -23 -31 -5
-7 10 -21 19 -32 19 -13 0 -20 7 -20 18 0 10 -16 34 -36 53 -20 18 -64 68 -97
109 -33 41 -68 78 -78 82 -23 9 -25 36 -3 45 19 7 45 -17 157 -147 49 -58 96
-109 104 -113 10 -6 11 -12 4 -21 -8 -9 -7 -18 3 -31 12 -16 13 -14 11 16 -1
25 -14 48 -47 84 -25 28 -79 88 -120 135 -70 80 -95 96 -125 84z m462 -345
c76 -24 75 -24 75 7 0 24 3 25 27 19 36 -9 37 -9 22 -34 -7 -11 -11 -22 -9
-24 3 -2 44 -16 91 -30 76 -24 120 -49 108 -61 -5 -5 -421 118 -438 129 -6 3
-9 10 -6 15 7 11 47 4 130 -21z m-155 -48 c-13 -49 -22 -54 -14 -8 8 45 14 61
20 54 3 -3 0 -23 -6 -46z m235 -24 l210 -62 -6 -45 c-4 -25 -19 -75 -34 -112
l-27 -68 -42 0 c-53 0 -134 21 -258 66 -137 50 -134 48 -118 123 7 35 19 65
25 68 7 2 18 24 25 49 7 24 13 44 14 44 0 0 96 -28 211 -63z m-601 -134 c-9
-38 -19 -47 -33 -30 -14 18 -5 44 17 50 10 3 18 5 20 6 1 0 -1 -11 -4 -26z
m221 -3 c8 -16 14 -42 14 -57 -1 -25 -2 -25 -8 7 -4 19 -13 45 -20 58 -6 12
-9 22 -7 22 3 0 12 -13 21 -30z m711 -145 c8 -21 -14 -45 -41 -45 -30 0 -42
30 -19 47 24 17 53 16 60 -2z"/>
<path d="M1130 724 c-41 -26 -76 -47 -76 -48 -1 0 18 -36 43 -78 34 -59 54
-83 88 -103 42 -24 95 -81 95 -102 0 -19 -47 -53 -73 -53 -14 0 -28 -4 -31 -9
-3 -5 -34 20 -69 56 l-63 65 -24 -20 -24 -19 31 -39 c56 -70 92 -99 105 -86 9
9 16 8 32 -6 18 -16 19 -16 13 1 -4 9 -4 24 0 33 5 13 8 13 15 2 7 -10 11 -10
14 -1 3 7 11 10 18 7 14 -5 66 49 66 69 0 7 39 -62 86 -153 47 -91 87 -166 89
-168 6 -6 105 11 105 19 0 13 -193 310 -198 305 -2 -3 35 -66 82 -140 105
-165 106 -166 73 -166 -14 0 -32 -2 -39 -5 -10 -4 -42 50 -108 177 -101 193
-132 238 -179 258 -25 10 -65 68 -99 141 -2 4 24 23 58 44 33 20 60 43 60 51
0 21 -8 18 -90 -32z m75 26 c-3 -5 -30 -24 -60 -42 -30 -18 -55 -37 -55 -42 0
-24 74 -138 98 -150 15 -8 43 -31 62 -52 l35 -38 -46 41 c-25 22 -55 44 -65
47 -22 7 -113 158 -98 163 5 2 36 21 69 42 67 44 69 45 60 31z m-135 -344 c0
14 24 -15 26 -32 2 -12 -3 -11 -22 7 -28 26 -32 15 -6 -16 9 -11 4 -8 -11 8
-28 28 -29 59 -1 36 8 -6 14 -8 14 -3z m71 -72 c10 -13 10 -17 -2 -25 -31 -20
-54 -6 -36 22 14 23 21 24 38 3z"/>
<path d="M2867 570 c-59 -84 -77 -118 -77 -143 l0 -34 -69 -7 c-133 -12 -436
-104 -457 -138 -4 -5 11 -27 32 -49 31 -32 50 -41 112 -55 51 -11 77 -13 84
-6 7 7 -1 14 -28 21 -22 5 -57 14 -80 20 -22 6 -50 22 -63 35 l-23 24 83 32
c92 35 191 59 449 106 43 8 52 -6 34 -52 -10 -26 -31 -50 -63 -72 -27 -18 -62
-48 -79 -66 -26 -29 -40 -35 -111 -46 -45 -7 -84 -16 -87 -21 -11 -19 7 -27
43 -19 21 5 64 14 96 20 40 8 60 17 65 30 8 21 115 110 132 110 7 0 10 -6 7
-13 -8 -21 9 -41 28 -33 11 4 15 13 12 27 -10 38 25 16 39 -25 15 -43 31 -66
46 -66 5 0 0 12 -11 26 -12 15 -21 35 -21 45 0 28 -28 49 -67 49 -24 0 -34 4
-30 12 31 85 32 89 17 98 -8 6 -30 10 -47 10 -30 0 -33 3 -33 31 0 22 21 62
76 141 42 60 74 111 72 114 -3 2 -39 -45 -81 -106z m-237 -221 c-47 -10 -92
-18 -100 -17 -27 1 124 36 155 36 17 0 -8 -8 -55 -19z m-216 -53 c-34 -13 -76
-32 -94 -41 l-32 -17 33 -35 34 -36 -43 33 c-23 19 -39 37 -34 42 13 13 165
78 182 77 8 0 -12 -11 -46 -23z"/>
</g>
</svg>
